<mxfile host="65bd71144e">
    <diagram id="WU5i4vkCBaCidyM8CPQL" name="Page-1">
        <mxGraphModel dx="1695" dy="-463" grid="1" gridSize="10" guides="1" tooltips="1" connect="1" arrows="1" fold="1" page="1" pageScale="1" pageWidth="850" pageHeight="1100" math="0" shadow="0">
            <root>
                <mxCell id="0"/>
                <mxCell id="1" parent="0"/>
                <mxCell id="135" style="edgeStyle=none;html=1;endArrow=none;endFill=0;" parent="1" source="137" target="343" edge="1">
                    <mxGeometry relative="1" as="geometry">
                        <mxPoint x="-135" y="1945" as="targetPoint"/>
                    </mxGeometry>
                </mxCell>
                <mxCell id="345" style="edgeStyle=none;html=1;exitX=0.5;exitY=0;exitDx=0;exitDy=0;entryX=0.5;entryY=1;entryDx=0;entryDy=0;endArrow=none;endFill=0;" parent="1" source="137" target="344" edge="1">
                    <mxGeometry relative="1" as="geometry"/>
                </mxCell>
                <mxCell id="137" value="Пользователь" style="rounded=0;whiteSpace=wrap;html=1;" parent="1" vertex="1">
                    <mxGeometry x="-195" y="1806" width="120" height="60" as="geometry"/>
                </mxCell>
                <mxCell id="138" style="edgeStyle=none;html=1;exitX=1;exitY=0.5;exitDx=0;exitDy=0;endArrow=none;endFill=0;" parent="1" source="139" edge="1">
                    <mxGeometry relative="1" as="geometry">
                        <mxPoint x="-135" y="1895.142857142857" as="targetPoint"/>
                    </mxGeometry>
                </mxCell>
                <mxCell id="139" value="ID" style="ellipse;whiteSpace=wrap;html=1;" parent="1" vertex="1">
                    <mxGeometry x="-265" y="1875" width="120" height="40" as="geometry"/>
                </mxCell>
                <mxCell id="140" style="edgeStyle=none;html=1;exitX=1;exitY=0.5;exitDx=0;exitDy=0;endArrow=none;endFill=0;" parent="1" source="141" edge="1">
                    <mxGeometry relative="1" as="geometry">
                        <mxPoint x="-135" y="1945" as="targetPoint"/>
                    </mxGeometry>
                </mxCell>
                <mxCell id="141" value="логин" style="ellipse;whiteSpace=wrap;html=1;" parent="1" vertex="1">
                    <mxGeometry x="-265" y="1925" width="120" height="40" as="geometry"/>
                </mxCell>
                <mxCell id="142" style="edgeStyle=none;html=1;endArrow=none;endFill=0;" parent="1" edge="1">
                    <mxGeometry relative="1" as="geometry">
                        <mxPoint x="-135" y="1895" as="targetPoint"/>
                        <mxPoint x="-125" y="1895" as="sourcePoint"/>
                    </mxGeometry>
                </mxCell>
                <mxCell id="144" style="edgeStyle=none;html=1;exitX=0;exitY=0.5;exitDx=0;exitDy=0;endArrow=none;endFill=0;" parent="1" source="145" edge="1">
                    <mxGeometry relative="1" as="geometry">
                        <mxPoint x="-135" y="1945" as="targetPoint"/>
                    </mxGeometry>
                </mxCell>
                <mxCell id="145" value="почта" style="ellipse;whiteSpace=wrap;html=1;" parent="1" vertex="1">
                    <mxGeometry x="-125" y="1925" width="120" height="40" as="geometry"/>
                </mxCell>
                <mxCell id="149" value="пароль" style="ellipse;whiteSpace=wrap;html=1;" parent="1" vertex="1">
                    <mxGeometry x="-125" y="1875" width="120" height="40" as="geometry"/>
                </mxCell>
                <mxCell id="152" style="edgeStyle=none;html=1;endArrow=none;endFill=0;" parent="1" source="156" edge="1">
                    <mxGeometry relative="1" as="geometry">
                        <mxPoint x="205" y="1485" as="targetPoint"/>
                    </mxGeometry>
                </mxCell>
                <mxCell id="153" style="edgeStyle=none;html=1;exitX=1;exitY=0.5;exitDx=0;exitDy=0;entryX=0;entryY=0.5;entryDx=0;entryDy=0;endArrow=none;endFill=0;startArrow=none;startFill=0;" parent="1" source="156" target="160" edge="1">
                    <mxGeometry relative="1" as="geometry"/>
                </mxCell>
                <mxCell id="299" style="edgeStyle=none;html=1;exitX=0;exitY=0.5;exitDx=0;exitDy=0;entryX=1;entryY=0.5;entryDx=0;entryDy=0;endArrow=none;endFill=0;" parent="1" source="156" target="298" edge="1">
                    <mxGeometry relative="1" as="geometry"/>
                </mxCell>
                <mxCell id="156" value="Схема метро" style="rounded=0;whiteSpace=wrap;html=1;" parent="1" vertex="1">
                    <mxGeometry x="145" y="1566" width="120" height="60" as="geometry"/>
                </mxCell>
                <mxCell id="231" style="edgeStyle=none;html=1;exitX=1;exitY=0.5;exitDx=0;exitDy=0;entryX=0;entryY=0.5;entryDx=0;entryDy=0;endArrow=ERmany;endFill=0;" parent="1" source="160" target="230" edge="1">
                    <mxGeometry relative="1" as="geometry"/>
                </mxCell>
                <mxCell id="160" value="Содержит" style="rhombus;whiteSpace=wrap;html=1;" parent="1" vertex="1">
                    <mxGeometry x="325" y="1566" width="100" height="60" as="geometry"/>
                </mxCell>
                <mxCell id="166" style="edgeStyle=none;html=1;exitX=1;exitY=0.5;exitDx=0;exitDy=0;endArrow=none;endFill=0;" parent="1" source="167" edge="1">
                    <mxGeometry relative="1" as="geometry">
                        <mxPoint x="205" y="1535" as="targetPoint"/>
                    </mxGeometry>
                </mxCell>
                <mxCell id="167" value="Город" style="ellipse;whiteSpace=wrap;html=1;" parent="1" vertex="1">
                    <mxGeometry x="75" y="1515" width="120" height="40" as="geometry"/>
                </mxCell>
                <mxCell id="233" style="edgeStyle=none;html=1;exitX=1;exitY=0.5;exitDx=0;exitDy=0;entryX=0;entryY=0.5;entryDx=0;entryDy=0;startArrow=ERmany;startFill=0;endArrow=none;endFill=0;" parent="1" source="230" target="232" edge="1">
                    <mxGeometry relative="1" as="geometry"/>
                </mxCell>
                <mxCell id="316" style="edgeStyle=none;html=1;endArrow=none;endFill=0;" parent="1" source="230" edge="1">
                    <mxGeometry relative="1" as="geometry">
                        <mxPoint x="545" y="1705" as="targetPoint"/>
                    </mxGeometry>
                </mxCell>
                <mxCell id="230" value="Ветка" style="rounded=0;whiteSpace=wrap;html=1;" parent="1" vertex="1">
                    <mxGeometry x="485" y="1566" width="120" height="60" as="geometry"/>
                </mxCell>
                <mxCell id="235" style="edgeStyle=none;html=1;exitX=1;exitY=0.5;exitDx=0;exitDy=0;endArrow=ERmany;endFill=0;" parent="1" source="232" target="234" edge="1">
                    <mxGeometry relative="1" as="geometry"/>
                </mxCell>
                <mxCell id="232" value="Состоит" style="rhombus;whiteSpace=wrap;html=1;" parent="1" vertex="1">
                    <mxGeometry x="665" y="1566" width="100" height="60" as="geometry"/>
                </mxCell>
                <mxCell id="296" style="edgeStyle=orthogonalEdgeStyle;html=1;endArrow=none;endFill=0;startArrow=ERmany;startFill=0;" parent="1" source="234" target="295" edge="1">
                    <mxGeometry relative="1" as="geometry">
                        <Array as="points">
                            <mxPoint x="940" y="1660"/>
                            <mxPoint x="940" y="1660"/>
                        </Array>
                    </mxGeometry>
                </mxCell>
                <mxCell id="317" style="edgeStyle=none;html=1;endArrow=none;endFill=0;" parent="1" source="234" edge="1">
                    <mxGeometry relative="1" as="geometry">
                        <mxPoint x="885" y="1485" as="targetPoint"/>
                    </mxGeometry>
                </mxCell>
                <mxCell id="339" style="edgeStyle=orthogonalEdgeStyle;html=1;exitX=0.25;exitY=1;exitDx=0;exitDy=0;entryX=1;entryY=0.5;entryDx=0;entryDy=0;endArrow=none;endFill=0;startArrow=ERmany;startFill=0;" parent="1" source="234" target="337" edge="1">
                    <mxGeometry relative="1" as="geometry"/>
                </mxCell>
                <mxCell id="359" style="edgeStyle=orthogonalEdgeStyle;html=1;entryX=1;entryY=0.5;entryDx=0;entryDy=0;endArrow=none;endFill=0;" edge="1" parent="1" source="234" target="358">
                    <mxGeometry relative="1" as="geometry">
                        <Array as="points">
                            <mxPoint x="880" y="1755"/>
                        </Array>
                    </mxGeometry>
                </mxCell>
                <mxCell id="234" value="Станция" style="rounded=0;whiteSpace=wrap;html=1;" parent="1" vertex="1">
                    <mxGeometry x="825" y="1566" width="120" height="60" as="geometry"/>
                </mxCell>
                <mxCell id="322" style="edgeStyle=none;html=1;endArrow=none;endFill=0;" parent="1" source="294" edge="1">
                    <mxGeometry relative="1" as="geometry">
                        <mxPoint x="940" y="1945" as="targetPoint"/>
                    </mxGeometry>
                </mxCell>
                <mxCell id="336" style="edgeStyle=orthogonalEdgeStyle;html=1;rounded=0;curved=0;endArrow=none;endFill=0;startArrow=ERmany;startFill=0;" parent="1" source="294" edge="1">
                    <mxGeometry relative="1" as="geometry">
                        <mxPoint x="1045" y="1595" as="targetPoint"/>
                    </mxGeometry>
                </mxCell>
                <mxCell id="294" value="Переход" style="rounded=0;whiteSpace=wrap;html=1;" parent="1" vertex="1">
                    <mxGeometry x="880" y="1806" width="120" height="60" as="geometry"/>
                </mxCell>
                <mxCell id="297" style="edgeStyle=none;html=1;endArrow=ERmany;endFill=0;" parent="1" source="295" target="294" edge="1">
                    <mxGeometry relative="1" as="geometry"/>
                </mxCell>
                <mxCell id="295" value="Имеет" style="rhombus;whiteSpace=wrap;html=1;" parent="1" vertex="1">
                    <mxGeometry x="890" y="1686" width="100" height="60" as="geometry"/>
                </mxCell>
                <mxCell id="301" style="edgeStyle=none;html=1;endArrow=ERmany;endFill=0;" parent="1" source="298" target="300" edge="1">
                    <mxGeometry relative="1" as="geometry"/>
                </mxCell>
                <mxCell id="298" value="Содержит" style="rhombus;whiteSpace=wrap;html=1;" parent="1" vertex="1">
                    <mxGeometry x="-15" y="1566" width="100" height="60" as="geometry"/>
                </mxCell>
                <mxCell id="334" style="edgeStyle=elbowEdgeStyle;html=1;entryX=0;entryY=0.5;entryDx=0;entryDy=0;elbow=vertical;endArrow=none;endFill=0;startArrow=ERmany;startFill=0;rounded=0;curved=0;" parent="1" source="300" target="333" edge="1">
                    <mxGeometry relative="1" as="geometry">
                        <Array as="points">
                            <mxPoint x="175" y="1365"/>
                        </Array>
                    </mxGeometry>
                </mxCell>
                <mxCell id="300" value="Маршрут" style="rounded=0;whiteSpace=wrap;html=1;" parent="1" vertex="1">
                    <mxGeometry x="-195" y="1566" width="120" height="60" as="geometry"/>
                </mxCell>
                <mxCell id="303" style="edgeStyle=none;html=1;exitX=1;exitY=0.5;exitDx=0;exitDy=0;endArrow=none;endFill=0;" parent="1" source="302" edge="1">
                    <mxGeometry relative="1" as="geometry">
                        <mxPoint x="204.99999999999977" y="1484.896551724138" as="targetPoint"/>
                    </mxGeometry>
                </mxCell>
                <mxCell id="302" value="Наименование" style="ellipse;whiteSpace=wrap;html=1;" parent="1" vertex="1">
                    <mxGeometry x="75" y="1465" width="120" height="40" as="geometry"/>
                </mxCell>
                <mxCell id="304" style="edgeStyle=none;html=1;exitX=1;exitY=0.5;exitDx=0;exitDy=0;endArrow=none;endFill=0;entryX=0;entryY=0.5;entryDx=0;entryDy=0;" parent="1" source="305" target="327" edge="1">
                    <mxGeometry relative="1" as="geometry">
                        <mxPoint x="545" y="1655.142857142857" as="targetPoint"/>
                    </mxGeometry>
                </mxCell>
                <mxCell id="305" value="Наименование" style="ellipse;whiteSpace=wrap;html=1;" parent="1" vertex="1">
                    <mxGeometry x="415" y="1635" width="120" height="40" as="geometry"/>
                </mxCell>
                <mxCell id="306" style="edgeStyle=none;html=1;exitX=1;exitY=0.5;exitDx=0;exitDy=0;endArrow=none;endFill=0;" parent="1" source="307" edge="1">
                    <mxGeometry relative="1" as="geometry">
                        <mxPoint x="545" y="1705" as="targetPoint"/>
                    </mxGeometry>
                </mxCell>
                <mxCell id="307" value="Статус" style="ellipse;whiteSpace=wrap;html=1;" parent="1" vertex="1">
                    <mxGeometry x="415" y="1685" width="120" height="40" as="geometry"/>
                </mxCell>
                <mxCell id="319" style="edgeStyle=none;html=1;exitX=1;exitY=0.5;exitDx=0;exitDy=0;endArrow=none;endFill=0;entryX=0;entryY=0.5;entryDx=0;entryDy=0;" parent="1" source="318" target="328" edge="1">
                    <mxGeometry relative="1" as="geometry">
                        <mxPoint x="885.0000000000002" y="1534.977011494253" as="targetPoint"/>
                    </mxGeometry>
                </mxCell>
                <mxCell id="318" value="Наименование" style="ellipse;whiteSpace=wrap;html=1;" parent="1" vertex="1">
                    <mxGeometry x="755" y="1515" width="120" height="40" as="geometry"/>
                </mxCell>
                <mxCell id="321" style="edgeStyle=none;html=1;exitX=1;exitY=0.5;exitDx=0;exitDy=0;endArrow=none;endFill=0;" parent="1" source="320" edge="1">
                    <mxGeometry relative="1" as="geometry">
                        <mxPoint x="885" y="1485" as="targetPoint"/>
                    </mxGeometry>
                </mxCell>
                <mxCell id="320" value="Статус" style="ellipse;whiteSpace=wrap;html=1;" parent="1" vertex="1">
                    <mxGeometry x="755" y="1465" width="120" height="40" as="geometry"/>
                </mxCell>
                <mxCell id="324" style="edgeStyle=none;html=1;endArrow=none;endFill=0;" parent="1" source="323" edge="1">
                    <mxGeometry relative="1" as="geometry">
                        <mxPoint x="940" y="1895" as="targetPoint"/>
                    </mxGeometry>
                </mxCell>
                <mxCell id="323" value="Статус" style="ellipse;whiteSpace=wrap;html=1;" parent="1" vertex="1">
                    <mxGeometry x="810" y="1875" width="120" height="40" as="geometry"/>
                </mxCell>
                <mxCell id="327" value="Цвет" style="ellipse;whiteSpace=wrap;html=1;" parent="1" vertex="1">
                    <mxGeometry x="555" y="1635" width="120" height="40" as="geometry"/>
                </mxCell>
                <mxCell id="328" value="Загруженность" style="ellipse;whiteSpace=wrap;html=1;" parent="1" vertex="1">
                    <mxGeometry x="895" y="1515" width="120" height="40" as="geometry"/>
                </mxCell>
                <mxCell id="330" style="edgeStyle=none;html=1;exitX=1;exitY=0.5;exitDx=0;exitDy=0;endArrow=none;endFill=0;" parent="1" source="329" edge="1">
                    <mxGeometry relative="1" as="geometry">
                        <mxPoint x="940" y="1945" as="targetPoint"/>
                    </mxGeometry>
                </mxCell>
                <mxCell id="329" value="Загруженность" style="ellipse;whiteSpace=wrap;html=1;" parent="1" vertex="1">
                    <mxGeometry x="810" y="1925" width="120" height="40" as="geometry"/>
                </mxCell>
                <mxCell id="335" style="edgeStyle=orthogonalEdgeStyle;html=1;entryX=1;entryY=0.5;entryDx=0;entryDy=0;rounded=0;curved=0;endArrow=ERmany;endFill=0;" parent="1" source="333" target="234" edge="1">
                    <mxGeometry relative="1" as="geometry">
                        <Array as="points">
                            <mxPoint x="1045" y="1365"/>
                            <mxPoint x="1045" y="1596"/>
                        </Array>
                    </mxGeometry>
                </mxCell>
                <mxCell id="333" value="Состоит" style="rhombus;whiteSpace=wrap;html=1;" parent="1" vertex="1">
                    <mxGeometry x="415" y="1335" width="100" height="60" as="geometry"/>
                </mxCell>
                <mxCell id="341" style="edgeStyle=orthogonalEdgeStyle;html=1;exitX=0.5;exitY=0;exitDx=0;exitDy=0;entryX=0;entryY=0.75;entryDx=0;entryDy=0;endArrow=ERmany;endFill=0;" parent="1" source="337" target="234" edge="1">
                    <mxGeometry relative="1" as="geometry"/>
                </mxCell>
                <mxCell id="337" value="Ведет" style="rhombus;whiteSpace=wrap;html=1;" parent="1" vertex="1">
                    <mxGeometry x="735" y="1645" width="100" height="60" as="geometry"/>
                </mxCell>
                <mxCell id="343" value="роль" style="ellipse;whiteSpace=wrap;html=1;" parent="1" vertex="1">
                    <mxGeometry x="-195" y="1970" width="120" height="40" as="geometry"/>
                </mxCell>
                <mxCell id="346" style="edgeStyle=none;html=1;exitX=0.5;exitY=0;exitDx=0;exitDy=0;entryX=0.5;entryY=1;entryDx=0;entryDy=0;endArrow=ERmany;endFill=0;" parent="1" source="344" target="300" edge="1">
                    <mxGeometry relative="1" as="geometry"/>
                </mxCell>
                <mxCell id="344" value="Имеет" style="rhombus;whiteSpace=wrap;html=1;" parent="1" vertex="1">
                    <mxGeometry x="-185" y="1686" width="100" height="60" as="geometry"/>
                </mxCell>
                <mxCell id="347" style="edgeStyle=none;html=1;endArrow=none;endFill=0;" parent="1" source="348" target="357" edge="1">
                    <mxGeometry relative="1" as="geometry">
                        <mxPoint x="545" y="1945" as="targetPoint"/>
                    </mxGeometry>
                </mxCell>
                <mxCell id="360" style="edgeStyle=orthogonalEdgeStyle;html=1;exitX=0.5;exitY=0;exitDx=0;exitDy=0;entryX=0;entryY=0.5;entryDx=0;entryDy=0;endArrow=none;endFill=0;" edge="1" parent="1" source="348" target="358">
                    <mxGeometry relative="1" as="geometry"/>
                </mxCell>
                <mxCell id="348" value="Дежурный" style="rounded=0;whiteSpace=wrap;html=1;" parent="1" vertex="1">
                    <mxGeometry x="485" y="1806" width="120" height="60" as="geometry"/>
                </mxCell>
                <mxCell id="349" style="edgeStyle=none;html=1;exitX=1;exitY=0.5;exitDx=0;exitDy=0;endArrow=none;endFill=0;" parent="1" source="350" edge="1">
                    <mxGeometry relative="1" as="geometry">
                        <mxPoint x="545" y="1895.142857142857" as="targetPoint"/>
                    </mxGeometry>
                </mxCell>
                <mxCell id="350" value="ID" style="ellipse;whiteSpace=wrap;html=1;" parent="1" vertex="1">
                    <mxGeometry x="415" y="1875" width="120" height="40" as="geometry"/>
                </mxCell>
                <mxCell id="351" style="edgeStyle=none;html=1;exitX=1;exitY=0.5;exitDx=0;exitDy=0;endArrow=none;endFill=0;" parent="1" source="352" edge="1">
                    <mxGeometry relative="1" as="geometry">
                        <mxPoint x="545" y="1945" as="targetPoint"/>
                    </mxGeometry>
                </mxCell>
                <mxCell id="352" value="логин" style="ellipse;whiteSpace=wrap;html=1;" parent="1" vertex="1">
                    <mxGeometry x="415" y="1925" width="120" height="40" as="geometry"/>
                </mxCell>
                <mxCell id="353" style="edgeStyle=none;html=1;endArrow=none;endFill=0;" parent="1" edge="1">
                    <mxGeometry relative="1" as="geometry">
                        <mxPoint x="545" y="1895" as="targetPoint"/>
                        <mxPoint x="555" y="1895" as="sourcePoint"/>
                    </mxGeometry>
                </mxCell>
                <mxCell id="354" style="edgeStyle=none;html=1;exitX=0;exitY=0.5;exitDx=0;exitDy=0;endArrow=none;endFill=0;" parent="1" source="355" edge="1">
                    <mxGeometry relative="1" as="geometry">
                        <mxPoint x="545" y="1945" as="targetPoint"/>
                    </mxGeometry>
                </mxCell>
                <mxCell id="355" value="почта" style="ellipse;whiteSpace=wrap;html=1;" parent="1" vertex="1">
                    <mxGeometry x="555" y="1925" width="120" height="40" as="geometry"/>
                </mxCell>
                <mxCell id="356" value="пароль" style="ellipse;whiteSpace=wrap;html=1;" parent="1" vertex="1">
                    <mxGeometry x="555" y="1875" width="120" height="40" as="geometry"/>
                </mxCell>
                <mxCell id="357" value="роль" style="ellipse;whiteSpace=wrap;html=1;" parent="1" vertex="1">
                    <mxGeometry x="485" y="1970" width="120" height="40" as="geometry"/>
                </mxCell>
                <mxCell id="358" value="Заведует" style="rhombus;whiteSpace=wrap;html=1;" vertex="1" parent="1">
                    <mxGeometry x="665" y="1725" width="100" height="60" as="geometry"/>
                </mxCell>
            </root>
        </mxGraphModel>
    </diagram>
</mxfile>